<svg id="Ebene_1" data-name="Ebene 1" xmlns="http://www.w3.org/2000/svg" viewBox="0 0 233.4 97.29">
    <defs>
        <style>.cls-1{fill:red;}.cls-2{fill:#fff;}.cls-3{fill: #fff}</style>
    </defs>
    <title>Logo_SE_positiv_RGB</title>
    <rect x="58.67" y="0.55" class="cls-3" width="5.6" height="29.65"/>
    <rect x="176.3" y="37.62" class="cls-3" width="5.7" height="29.65"/>
    <rect x="72.49" y="37.62" class="cls-3" width="5.37" height="29.65"/>
    <polygon
        class="cls-3"
        points="0.58 37.62 15.19 37.62 15.19 42.45 6.17 42.45 6.17 49.55 14.22 49.55 14.22 54.16 6.17 54.16 6.17 62.76 15.19 62.76 15.19 67.27 0.58 67.27 0.58 37.62"/>
    <polygon
        class="cls-3"
        points="21.64 37.62 28.95 37.62 36.15 58.14 36.15 37.62 41.62 37.62 41.62 67.27 34.1 67.27 27.01 46.54 27.01 67.27 21.64 67.27 21.64 37.62"/>
    <path
        class="cls-3"
        d="M89,76c-.21-2.79-.64-5.16-3.22-5.16-3.65,0-4,5.16-4,11C81.8,91,83,92.61,86.43,92.61A4,4,0,0,0,88.9,92V85.42H86.1V80.9h8.28v15a30.69,30.69,0,0,1-7.1,1c-10.09,0-10.85-4.3-10.85-15.58,0-7.41,0-14.93,9.78-14.93,5.48,0,8.49,3.33,8.17,9.56Z"
        transform="translate(-28.61 -29.1)"/>
    <polygon
        class="cls-3"
        points="84.31 37.62 91.73 37.62 98.93 58.14 98.93 37.62 104.3 37.62 104.3 67.27 96.78 67.27 89.79 46.54 89.79 67.27 84.31 67.27 84.31 37.62"/>
    <polygon
        class="cls-3"
        points="110.75 37.62 125.15 37.62 125.15 42.45 116.33 42.45 116.33 49.65 124.29 49.65 124.29 54.27 116.33 54.27 116.33 62.76 125.15 62.76 125.15 67.27 110.75 67.27 110.75 37.62"/>
    <polygon
        class="cls-3"
        points="131.6 37.62 146.21 37.62 146.21 42.45 137.19 42.45 137.19 49.65 145.24 49.65 145.24 54.27 137.19 54.27 137.19 62.76 146.21 62.76 146.21 67.27 131.6 67.27 131.6 37.62"/>
    <path
        class="cls-3"
        d="M256,76c-.22-2.79-.65-5.16-3.12-5.16-3.65-.1-4,5.16-4,11,0,9.24,1.18,10.85,4.51,10.85a4.88,4.88,0,0,0,2.47-.64V85.42h-2.69V80.9h8.28v15a31.82,31.82,0,0,1-7.2,1c-10,0-10.74-4.3-10.74-15.58,0-7.41,0-15,9.66-15,5.48,0,8.6,3.44,8.17,9.67Z"
        transform="translate(-28.61 -29.1)"/>
    <path
        class="cls-3"
        d="M189.22,79.51a2.12,2.12,0,0,0,2.14-1.08c1.4-2.15.43-5.05.33-5.48-.33-1.39-2.47-1.39-2.47-1.39H187v8Zm8.38-2.26a5.81,5.81,0,0,1-4.3,4.62,10.82,10.82,0,0,1,2.36.86c1.83.75,2.15,4.94,2.15,4.94.11,1,.11,4.08.11,4.51a14.06,14.06,0,0,0,.54,4.19h-5.38a8.3,8.3,0,0,1-.75-3.44V89.28c0-3.44-1.18-4.19-1.18-4.29-.86-1.18-4.19-.76-4.19-.76V96.37h-5.69V66.72h11.06c7.63,1.4,5.27,10.53,5.27,10.53"
        transform="translate(-28.61 -29.1)"/>
    <polygon
        class="cls-3"
        points="188.44 37.62 195.86 37.62 203.06 58.14 203.06 37.62 208.43 37.62 208.43 67.27 201.01 67.27 193.93 46.54 193.93 67.27 188.44 67.27 188.44 37.62"/>
    <path
        class="cls-3"
        d="M36.76,59.63c-7,0-8.34-4.5-8-9.66h5.71c0,2.85.1,5.27,3.18,5.27,1.87,0,2.86-1.43,2.86-3.41,0-5.38-11.43-5.71-11.43-14.38,0-4.72,2-8.35,8.9-8.35,5.6,0,8.34,2.64,7.91,8.9H40.39c0-2.2-.33-4.5-2.64-4.5-1.87,0-3,1.09-3,3.18,0,5.6,11.43,5.16,11.43,14.38,0,7.69-5.17,8.57-9.45,8.57"
        transform="translate(-28.61 -29.1)"/>
    <polygon
        class="cls-3"
        points="21 0.55 27.04 0.55 30.23 21.19 34.84 0.55 41.54 0.55 45.6 21.19 49 0.55 54.71 0.55 48.67 30.2 42.3 30.2 38.13 8.68 33.19 30.2 27.04 30.2 21 0.55"/>
    <path
        class="cls-3"
        d="M106.93,59.63c-7,0-8.35-4.5-8-9.66h5.71c0,2.85.11,5.27,3.19,5.27,1.86,0,2.85-1.43,2.85-3.41,0-5.38-11.42-5.71-11.42-14.38,0-4.72,2-8.35,8.9-8.35,5.6,0,8.34,2.64,7.9,8.9h-5.49c0-2.2-.33-4.5-2.63-4.5-1.87,0-3,1.09-3,3.18,0,5.6,11.42,5.16,11.42,14.38,0,7.69-5.16,8.57-9.44,8.57"
        transform="translate(-28.61 -29.1)"/>
    <path
        class="cls-3"
        d="M129.55,59.63c-7,0-8.24-4.5-8-9.66h5.71c0,2.85.11,5.27,3.19,5.27,2,0,2.85-1.32,2.85-3.41,0-5.27-11.42-5.6-11.42-14.38,0-4.61,2.09-8.35,9-8.35,5.49,0,8.23,2.75,7.9,8.9h-5.6c0-2.2-.33-4.5-2.63-4.5-1.76,0-2.86,1.09-2.86,3.18,0,5.71,11.42,5.16,11.42,14.38,0,7.69-5.16,8.57-9.55,8.57"
        transform="translate(-28.61 -29.1)"/>
    <rect class="cls-1" x="118.18" y="0.55" width="114.64" height="29.65"/>
    <path
        class="cls-3"
        d="M34.12,126.39a5.35,5.35,0,0,1-5.51-5.2H30.4c.05,2.84,2.16,3.66,4.64,3.66,2.08,0,4.47-1.2,4.47-3.56,0-1.85-1.34-2.72-2.9-3.23-3-1-7.57-2-7.57-6,0-3.24,3-5,5.9-5,2.44,0,5.62.85,6,4.42h-1.8c-.05-2.29-2.13-2.88-4-2.88s-4.31,1-4.31,3.24c0,5.25,10.46,2.87,10.46,9.25,0,4-3.46,5.26-7.18,5.26"
        transform="translate(-28.61 -29.1)"/>
    <polygon
        class="cls-3"
        points="24.11 79.92 18.13 79.92 18.13 78.39 31.68 78.39 31.68 79.92 25.8 79.92 25.78 96.91 24.13 96.91 24.11 79.92"/>
    <polygon
        class="cls-3"
        points="43.55 95.24 43.6 95.24 49.48 78.39 51.14 78.39 44.45 96.91 42.55 96.91 35.78 78.39 37.6 78.39 43.55 95.24"/>
    <path
        class="cls-3"
        d="M122,107.49v12c.13,3.36,2.06,5.38,5.11,5.38s5-2,5.1-5.38v-12h1.67v12c-.05,4-2.28,6.9-6.77,6.9s-6.72-2.92-6.77-6.9v-12Z"
        transform="translate(-28.61 -29.1)"/>
    <polygon
        class="cls-3"
        points="117.67 79.92 111.69 79.92 111.69 78.39 125.23 78.39 125.23 79.92 119.36 79.92 119.33 96.91 117.69 96.91 117.67 79.92"/>
    <path
        class="cls-3"
        d="M164.79,126.39a5.35,5.35,0,0,1-5.51-5.2h1.79c.05,2.84,2.16,3.66,4.64,3.66,2.08,0,4.47-1.2,4.47-3.56,0-1.85-1.34-2.72-2.9-3.23-3-1-7.57-2-7.57-6,0-3.24,3-5,5.9-5,2.44,0,5.62.85,6,4.42h-1.8c-.05-2.29-2.13-2.88-4-2.88s-4.31,1-4.31,3.24c0,5.25,10.46,2.87,10.46,9.25,0,4-3.46,5.26-7.18,5.26"
        transform="translate(-28.61 -29.1)"/>
    <path
        class="cls-3"
        d="M223.79,119.47l-4-10.44-4.08,10.44ZM211.5,126l7.34-18.52h1.95L228.17,126h-1.82l-2-5h-9.21l-1.95,5Z"
          transform="translate(-28.61 -29.1)"/>
    <polygon
        class="cls-3"
        points="207.7 79.92 201.72 79.92 201.72 78.39 215.26 78.39 215.26 79.92 209.39 79.92 209.36 96.91 207.72 96.91 207.7 79.92"/>
    <path
        class="cls-3"
        d="M254.82,126.39a5.36,5.36,0,0,1-5.51-5.2h1.8c0,2.84,2.15,3.66,4.64,3.66,2.07,0,4.46-1.2,4.46-3.56,0-1.85-1.33-2.72-2.9-3.23-3-1-7.57-2-7.57-6,0-3.24,3-5,5.9-5,2.44,0,5.62.85,6,4.42h-1.79c-.05-2.29-2.13-2.88-4-2.88s-4.31,1-4.31,3.24c0,5.25,10.46,2.87,10.46,9.25,0,4-3.46,5.26-7.18,5.26"
        transform="translate(-28.61 -29.1)"/>
    <path class="cls-2"
          d="M204.11,49.11a2.31,2.31,0,1,1,2.31-2.31,2.3,2.3,0,0,1-2.31,2.31m3-5.94,0,0-.05,0h0a4.76,4.76,0,0,0-2.95-1,4.84,4.84,0,0,0-1.62.29l1.63-8.61,1.46,7.71a5.57,5.57,0,0,1,2.68,1.67l-1.94-10.25a6.74,6.74,0,0,1-2.2.32,6.63,6.63,0,0,1-2.19-.32l-2.46,12.94s0,.06,0,.1l0,.16h0a4.4,4.4,0,0,0-.06.73A4.73,4.73,0,0,0,201,50.41l-8.29,2.84,6-5.08a5.65,5.65,0,0,1-.17-1.37,5.53,5.53,0,0,1,.29-1.78l-7.95,6.75a7.66,7.66,0,0,1,2.18,3.82l12.43-4.26.06,0,.22-.08h0a4.73,4.73,0,0,0,3-3.64l6.68,5.66L208,50.72a5.56,5.56,0,0,1-2.77,1.51l9.87,3.36a6.69,6.69,0,0,1,.8-2.07,6.86,6.86,0,0,1,1.37-1.75Z"
          transform="translate(-28.61 -29.1)"/>
</svg>