<svg xmlns="http://www.w3.org/2000/svg" width="315.396" height="303.649" viewBox="0 0 315.396 303.649">
  <path id="Ausschluss_24" data-name="Ausschluss 24" d="M13323.766,18268.676h0c-1-.006-86.955-26.449-96.754-29.463l-.1-.033c4.646-1.391,9.2-2.949,13.533-4.637,3.463-1.348,6.795-2.779,9.907-4.258a86.091,86.091,0,0,0,8.155-4.322l68.317,22.383-61.178-52.9a38.215,38.215,0,0,1-4.8,11.842,51.839,51.839,0,0,1-9.092,11.178,49.005,49.005,0,0,1-5.83,4.652,43.531,43.531,0,0,1-6.513,3.664,35.2,35.2,0,0,1-14.552,3.26c-2.014,0-102.952,37.254-103.97,37.631a73.861,73.861,0,0,0-5.186-13.133,113.347,113.347,0,0,0-14.2-21.449l72.389-62.055a21.84,21.84,0,0,0-1.881,7.4,56.339,56.339,0,0,0-.165,8.363,85.757,85.757,0,0,0,1.009,9.664l-59.113,50.861,80.527-26.451a40,40,0,0,1-7.05-7.441,41.606,41.606,0,0,1-4.638-8.227,52.226,52.226,0,0,1-3.854-16.625,68.248,68.248,0,0,1,.35-13.193,49.9,49.9,0,0,1,.923-5.371v0l22.423-111.879a66.881,66.881,0,0,0,20.978,3,103.658,103.658,0,0,0,14.047-.992c3.232-.449,5.354-.9,5.746-.988l.012,0,19.369,95.615a75.681,75.681,0,0,0-8.237-7.107,73.21,73.21,0,0,0-7.182-4.719,50.555,50.555,0,0,0-7-3.434l-17.322-73.242-15.294,80.355a45.579,45.579,0,0,1,14.4-2.4c18.76,0,31.82,12.338,36.112,16.393a7.1,7.1,0,0,0,1.486,1.27l84.6,72.225a65.484,65.484,0,0,0-9.636,11.408,82.126,82.126,0,0,0-6.288,11.215,76.36,76.36,0,0,0-4.452,11.941v0Zm-100.434-99.332a23.683,23.683,0,0,0-8.667,1.621,22.315,22.315,0,0,0-7.133,4.482,20.7,20.7,0,0,0-6.62,15.264,19.405,19.405,0,0,0,1.781,8.051,22.253,22.253,0,0,0,4.839,6.816,23.231,23.231,0,0,0,7.133,4.719,22.239,22.239,0,0,0,8.667,1.762,21.134,21.134,0,0,0,15.285-6.48,21.766,21.766,0,0,0,4.489-6.816,20.853,20.853,0,0,0,1.625-8.051,22.358,22.358,0,0,0-1.625-8.492,20.383,20.383,0,0,0-11.272-11.254A22.488,22.488,0,0,0,13223.332,18169.344Z" transform="translate(-20375.307 -8966.733) rotate(-30)" fill="#f0f0f0" opacity="0.082" style="mix-blend-mode: overlay;isolation: isolate"/>
</svg>
