<svg id="Icon_Set_Event" data-name="Icon Set Event" xmlns="http://www.w3.org/2000/svg" width="24" height="24" viewBox="0 0 24 24">
  <rect id="Rechteck_4324" data-name="Rechteck 4324" width="24" height="24" fill="none"/>
  <path id="Pfad_6809" data-name="Pfad 6809" d="M326.347,8.729a3.99,3.99,0,0,1-4.116-4.115,4.126,4.126,0,1,1,8.252,0,3.976,3.976,0,0,1-1.177,2.949,4.033,4.033,0,0,1-2.959,1.167m-7.9,8.571V14.35a3.139,3.139,0,0,1,.518-1.78,3.371,3.371,0,0,1,1.352-1.184,16.332,16.332,0,0,1,3.028-1.071,12.779,12.779,0,0,1,6.038,0,16.486,16.486,0,0,1,2.987,1.06,3.224,3.224,0,0,1,1.377,1.165,3.158,3.158,0,0,1,.523,1.8V17.3H318.446" transform="translate(-314.447 3.502)"/>
</svg>
