<svg id="Icon_Set_Themen" data-name="Icon Set Themen" xmlns="http://www.w3.org/2000/svg" width="100" height="100" viewBox="0 0 100 100">
  <rect id="Rechteck_4092" data-name="Rechteck 4092" width="100" height="100" fill="none"/>
  <path id="Pfad_6446" data-name="Pfad 6446" d="M18.126,56.821l4.009,4.008v.743h-4Zm.288-2.544,3.721-3.72V58Zm18.4-5.332H70.165v5.337H36.812Zm-18.7-3.414,3.11,3.11-3.1,3.1Zm.3-2.536,3.721-3.722v7.443Zm-.31-8.962,3.221,3.222-3.214,3.214Zm.31-2.519,3.721-3.722v7.443Zm-.323-8.577,3.035,3.033L18.1,29Zm39.4-3.963h1.382V39.588H57.491ZM18.414,20.43l3.721-3.722v7.443Zm-.33-4.839h2.34l-2.34,2.337Zm6.053,0H53.488v3.384h2V39.583H34.812V61.572H24.137Zm31.352,0,5.337,0v1.38H55.489ZM8.128,11.278H9.311l3.033,2.313H8.127Zm21.612-.357h30.7l3.346,2.667H26.54Zm-11.662-.774h4.057V13.59H18.082ZM9.987,9.276H9.965L16.071,5.5l.009,8.42Zm14.15-4.529L35.9,8.921H29.014l-4.877,4.06ZM18.071,4.2,20.323,2.5l1.812,1.337V8.146H18.071ZM20.309,0,16.5,2.882,6.189,9.256l.012.019H6.127v6.316h9.956l.049,45.98H0v2.775H76.581V61.572H72.165V39.587H60.873V18.976h1.955V15.591H69.5L61.14,8.921H41.889L23.608,2.435Z" transform="translate(11.709 17.826)"/>
</svg>
