<svg id="Icons_Set_Sticky" data-name="Icons Set Sticky" xmlns="http://www.w3.org/2000/svg" width="48" height="48" viewBox="0 0 48 48">
  <rect id="Rechteck_4326" data-name="Rechteck 4326" width="48" height="48" fill="none"/>
  <path id="Pfad_6501" data-name="Pfad 6501" d="M86.026,19.151l-4.053-4.025,1.234-1.234,2.82,2.761,5.4-5.4,1.234,1.263ZM78.594,23.5a1.807,1.807,0,0,1-1.762-1.762V3.525a1.691,1.691,0,0,1,.529-1.234,1.691,1.691,0,0,1,1.234-.529H80.5V0h1.909V1.762H92.4V0h1.909V1.762h1.909a1.69,1.69,0,0,1,1.234.529,1.691,1.691,0,0,1,.529,1.234V21.736A1.807,1.807,0,0,1,96.218,23.5Zm0-1.762H96.218V9.106H78.594Z" transform="translate(-63.832 12)"/>
</svg>
