<svg id="Icon_Set_Social_Media" data-name="Icon Set Social Media" xmlns="http://www.w3.org/2000/svg" xmlns:xlink="http://www.w3.org/1999/xlink" width="50" height="50" viewBox="0 0 50 50">
  <defs>
    <clipPath id="clip-path">
      <rect id="Rechteck_4609" data-name="Rechteck 4609" width="20.715" height="20.721" transform="translate(0 0)" fill="none"/>
    </clipPath>
  </defs>
  <rect id="Rechteck_4603" data-name="Rechteck 4603" width="50" height="50" fill="#fff"/>
  <g id="Gruppe_16869" data-name="Gruppe 16869" transform="translate(15 14.999)">
    <g id="Gruppe_16869-2" data-name="Gruppe 16869" clip-path="url(#clip-path)">
      <path id="Pfad_6812" data-name="Pfad 6812" d="M10.357,5.038a5.319,5.319,0,1,0,5.319,5.319,5.318,5.318,0,0,0-5.319-5.319m0,8.772a3.452,3.452,0,1,1,3.452-3.452,3.452,3.452,0,0,1-3.452,3.452"/>
      <path id="Pfad_6813" data-name="Pfad 6813" d="M20.653,6.087a7.609,7.609,0,0,0-.481-2.515A5.275,5.275,0,0,0,17.141.543a7.644,7.644,0,0,0-2.515-.48C13.522.011,13.169,0,10.356,0S7.191.011,6.085.063a7.659,7.659,0,0,0-2.514.48A5.089,5.089,0,0,0,1.738,1.736a5.126,5.126,0,0,0-1.2,1.835A7.667,7.667,0,0,0,.061,6.087C.01,7.191,0,7.545,0,10.361s.01,3.167.061,4.27a7.671,7.671,0,0,0,.481,2.515,5.3,5.3,0,0,0,3.03,3.029,7.608,7.608,0,0,0,2.514.481c1.1.052,1.458.065,4.271.065s3.166-.013,4.27-.065a7.609,7.609,0,0,0,2.515-.481,5.288,5.288,0,0,0,3.029-3.029,7.614,7.614,0,0,0,.481-2.515c.05-1.1.063-1.458.063-4.27s-.013-3.167-.063-4.269m-1.865,8.453a5.74,5.74,0,0,1-.357,1.923,3.437,3.437,0,0,1-1.965,1.966,5.75,5.75,0,0,1-1.924.357c-1.091.049-1.42.059-4.186.059s-3.094-.01-4.187-.059a5.74,5.74,0,0,1-1.923-.357,3.372,3.372,0,0,1-1.96-1.959,5.771,5.771,0,0,1-.357-1.924c-.049-1.091-.059-1.42-.059-4.185s.01-3.093.059-4.186a5.765,5.765,0,0,1,.357-1.923,3.22,3.22,0,0,1,.77-1.19,3.212,3.212,0,0,1,1.19-.77A5.79,5.79,0,0,1,6.168,1.94c1.092-.049,1.42-.059,4.187-.059l.006-.006c2.77,0,3.093.01,4.186.059a5.771,5.771,0,0,1,1.924.357,3.37,3.37,0,0,1,1.959,1.96,5.74,5.74,0,0,1,.357,1.923c.049,1.092.06,1.42.06,4.186s-.011,3.092-.06,4.185"/>
      <path id="Pfad_6814" data-name="Pfad 6814" d="M15.912,3.586A1.243,1.243,0,1,1,14.67,4.828a1.242,1.242,0,0,1,1.242-1.242"/>
    </g>
  </g>
</svg>
