<svg id="Icon_Set_Quick_Links" data-name="Icon Set Quick Links" xmlns="http://www.w3.org/2000/svg" width="24" height="24" viewBox="0 0 24 24">
  <path id="Pfad_6585" data-name="Pfad 6585" d="M0,0H24V24H0Z" fill="none"/>
  <path id="Pfad_6517" data-name="Pfad 6517" d="M257.495,16.883a1.84,1.84,0,0,1-1.851-1.851V7.372a1.8,1.8,0,0,1,.539-1.32,1.779,1.779,0,0,1,1.311-.542h2.434V3.86a1.789,1.789,0,0,1,.539-1.305,1.773,1.773,0,0,1,1.311-.545h2.864a1.773,1.773,0,0,1,1.311.545,1.79,1.79,0,0,1,.539,1.305v1.65h2.433a1.852,1.852,0,0,1,1.862,1.862v7.661a1.781,1.781,0,0,1-.542,1.312,1.8,1.8,0,0,1-1.32.539Zm4.284-11.373h2.864V3.86h-2.864Z" transform="translate(-251.644 2.991)"/>
</svg>
