<svg id="Icon_Set_Quick_Links" data-name="Icon Set Quick Links" xmlns="http://www.w3.org/2000/svg" width="24" height="24" viewBox="0 0 24 24">
  <path id="Pfad_6585" data-name="Pfad 6585" d="M0,0H24V24H0Z" fill="none"/>
  <g id="Gruppe_15758" data-name="Gruppe 15758" transform="translate(-255 -1456.457)">
    <path id="Pfad_6503" data-name="Pfad 6503" d="M23.511,6.748A2.332,2.332,0,1,1,21.179,9.08a2.332,2.332,0,0,1,2.332-2.332" transform="translate(249.763 1456.62)"/>
    <path id="Pfad_6504" data-name="Pfad 6504" d="M24.2,13.933H23.116a3.869,3.869,0,0,0-1.312.229.178.178,0,0,0-.064.3,5.463,5.463,0,0,1,1.75,4.009L23.48,19.5h3.694a.935.935,0,0,0,.935-.936v-.72A3.907,3.907,0,0,0,24.2,13.933" transform="translate(249.614 1454.504)"/>
    <path id="Pfad_6505" data-name="Pfad 6505" d="M5.335,6.748A2.332,2.332,0,1,1,3,9.08,2.332,2.332,0,0,1,5.335,6.748" transform="translate(255.116 1456.62)"/>
    <path id="Pfad_6506" data-name="Pfad 6506" d="M6.369,14.458a.178.178,0,0,0-.065-.3,3.882,3.882,0,0,0-1.312-.229H3.907A3.907,3.907,0,0,0,0,17.84v.721a.935.935,0,0,0,.935.935H4.628l-.009-1.028a5.464,5.464,0,0,1,1.75-4.01" transform="translate(256 1454.504)"/>
    <path id="Pfad_6507" data-name="Pfad 6507" d="M18.4,17.908c0-.016,0-.032-.007-.047-.009-.081-.023-.164-.039-.246s-.027-.142-.044-.212c-.007-.034-.016-.066-.023-.1-.02-.074-.04-.146-.062-.219s-.056-.171-.088-.255-.061-.155-.1-.232a.264.264,0,0,1-.016-.036c-.034-.075-.071-.147-.108-.219s-.085-.157-.132-.234a4.566,4.566,0,0,0-3.93-2.239H12.585a4.576,4.576,0,0,0-4.576,4.576v.846A1.093,1.093,0,0,0,9.1,20.388h8.236a1.088,1.088,0,0,0,1.073-.911h0a.472.472,0,0,0,.013-.09.786.786,0,0,0,0-.092v-.846c0-.11,0-.221-.013-.329C18.416,18.048,18.41,17.978,18.4,17.908Z" transform="translate(253.642 1454.522)"/>
    <path id="Pfad_6508" data-name="Pfad 6508" d="M14.256,5.457a2.732,2.732,0,1,1-2.732,2.732,2.732,2.732,0,0,1,2.732-2.732" transform="translate(252.606 1457)"/>
  </g>
</svg>
