<svg id="Icon_Set_Event" data-name="Icon Set Event" xmlns="http://www.w3.org/2000/svg" width="24" height="24" viewBox="0 0 24 24">
  <rect id="Rechteck_4324" data-name="Rechteck 4324" width="24" height="24" fill="none"/>
  <path id="Pfad_6495" data-name="Pfad 6495" d="M397.465,16.35l-3.55-3.55,1.45-1.45,2.1,2.1,4.2-4.2,1.45,1.45ZM391.515,20a2,2,0,0,1-2-2V4a1.93,1.93,0,0,1,.587-1.413A1.93,1.93,0,0,1,391.515,2h1V0h2V2h8V0h2V2h1a1.926,1.926,0,0,1,1.412.587A1.927,1.927,0,0,1,407.515,4V18a2.006,2.006,0,0,1-2,2Zm0-2h14V8h-14Z" transform="translate(-386.515 2)"/>
</svg>
