<svg id="Icon_Set_Funktions" data-name="Icon Set Funktions" xmlns="http://www.w3.org/2000/svg" width="50" height="50" viewBox="0 0 50 50">
  <rect id="Rechteck_4603" data-name="Rechteck 4603" width="50" height="50" fill="none"/>
  <path id="boy_FILL0_wght600_GRAD0_opsz24" d="M356.745-806.6a3.057,3.057,0,0,1-2.256-.948,3.113,3.113,0,0,1-.936-2.268,3.069,3.069,0,0,1,.933-2.253,3.069,3.069,0,0,1,2.253-.933,3.081,3.081,0,0,1,2.256.933,3.064,3.064,0,0,1,.936,2.253,3.119,3.119,0,0,1-.933,2.268A3.045,3.045,0,0,1,356.745-806.6Zm-3.6,20.662v-8.311h-1.625v-7.475a3.511,3.511,0,0,1,1.047-2.555,3.442,3.442,0,0,1,2.549-1.063h3.251a3.442,3.442,0,0,1,2.549,1.063,3.511,3.511,0,0,1,1.047,2.555v7.478h-1.625v8.308Z" transform="translate(-331.521 824.003)"/>
</svg>
