<svg id="Icon_Set_Themen" data-name="Icon Set Themen" xmlns="http://www.w3.org/2000/svg" xmlns:xlink="http://www.w3.org/1999/xlink" width="100" height="100" viewBox="0 0 100 100">
  <defs>
    <clipPath id="clip-path">
      <rect id="Rechteck_4322" data-name="Rechteck 4322" width="76.581" height="60.182" transform="translate(0 0)" fill="none"/>
    </clipPath>
  </defs>
  <rect id="Rechteck_4092" data-name="Rechteck 4092" width="100" height="100" fill="none"/>
  <g id="Gruppe_15680" data-name="Gruppe 15680" transform="translate(12 22)">
    <g id="Gruppe_15680-2" data-name="Gruppe 15680" clip-path="url(#clip-path)">
      <path id="Pfad_6474" data-name="Pfad 6474" d="M54.158,5.112A16.929,16.929,0,0,0,37.946.5a15.472,15.472,0,0,0-4.554,1.891,17.62,17.62,0,0,0-5.818,24.228q.141.229.289.456a1.36,1.36,0,0,1-.147,1.717l-2.563,2.549a1.282,1.282,0,0,1-1.812,0l-.023-.024L20.1,27.962a1.281,1.281,0,0,0-1.812-.045l-.023.022-1.859,1.845a1.339,1.339,0,0,0-.023,1.869L19.6,35.016a1.338,1.338,0,0,1-.021,1.867l-2.648,2.635a1.337,1.337,0,0,0-.022,1.869l1.813,1.89a1.281,1.281,0,0,0,1.812.045l.023-.022L23.2,40.668a1.284,1.284,0,0,1,1.815,0l.022.023,3.238,3.381a1.282,1.282,0,0,0,1.813.045l.023-.022,1.857-1.846A1.339,1.339,0,0,0,32,40.38l-4.149-4.326,3.666-3.643a1.294,1.294,0,0,1,1.616-.156,16.735,16.735,0,0,0,8.942,2.581A17.081,17.081,0,0,0,56.829,26.26a15.97,15.97,0,0,0,1.855-4.639A17.661,17.661,0,0,0,54.158,5.112M50.486,25.993a11.752,11.752,0,0,1-16.619.213c-.072-.07-.143-.141-.214-.213a12.286,12.286,0,0,1,0-17.144,11.754,11.754,0,0,1,16.62-.213q.108.105.213.213a12.28,12.28,0,0,1,0,17.144"/>
      <rect id="Rechteck_4321" data-name="Rechteck 4321" width="76.581" height="2.776" transform="translate(0 57.406)"/>
    </g>
  </g>
</svg>
