<svg id="Icon_Set_Event" data-name="Icon Set Event" xmlns="http://www.w3.org/2000/svg" width="24" height="24" viewBox="0 0 24 24">
  <rect id="Rechteck_4324" data-name="Rechteck 4324" width="24" height="24" fill="none"/>
  <path id="Pfad_6492" data-name="Pfad 6492" d="M267.277,14.6l7.05-7.05-1.4-1.4-5.65,5.65-2.85-2.85-1.4,1.4Zm1.4,5.4a9.723,9.723,0,0,1-3.9-.788,9.978,9.978,0,0,1-5.312-5.312,9.74,9.74,0,0,1-.788-3.9,9.74,9.74,0,0,1,.788-3.9A9.978,9.978,0,0,1,264.777.788a10.045,10.045,0,0,1,7.8,0A9.984,9.984,0,0,1,277.89,6.1a9.74,9.74,0,0,1,.787,3.9,9.74,9.74,0,0,1-.787,3.9,9.984,9.984,0,0,1-5.313,5.312,9.723,9.723,0,0,1-3.9.788" transform="translate(-256.677 2)" fill="#090"/>
</svg>
