<svg id="Icon_Set_Themen" data-name="Icon Set Themen" xmlns="http://www.w3.org/2000/svg" xmlns:xlink="http://www.w3.org/1999/xlink" width="100" height="100" viewBox="0 0 100 100">
  <defs>
    <clipPath id="clip-path">
      <rect id="Rechteck_4319" data-name="Rechteck 4319" width="76.581" height="62.999" transform="translate(0 0)" fill="none"/>
    </clipPath>
  </defs>
  <rect id="Rechteck_4092" data-name="Rechteck 4092" width="100" height="100" fill="none"/>
  <g id="Gruppe_15678" data-name="Gruppe 15678" transform="translate(12 19)">
    <g id="Gruppe_15678-2" data-name="Gruppe 15678" clip-path="url(#clip-path)">
      <path id="Pfad_6454" data-name="Pfad 6454" d="M25.406,24.824h17.08V17.932H35.294V12.339a1.492,1.492,0,0,0-1.4-1.3,1.323,1.323,0,0,0-1.3,1.3v5.593H25.406Z"/>
      <path id="Pfad_6455" data-name="Pfad 6455" d="M60.166,5.446a1.3,1.3,0,0,0,1.3-1.3v-2.8a1.3,1.3,0,0,0-2.6,0v2.8a1.3,1.3,0,0,0,1.3,1.3"/>
      <path id="Pfad_6456" data-name="Pfad 6456" d="M52.074,4.748l2,2a1.219,1.219,0,0,0,.9.4,1.083,1.083,0,0,0,.9-.4,1.265,1.265,0,0,0,.009-1.79l-.009-.008-2-2a1.272,1.272,0,0,0-1.83,1.766c.01.011.021.021.032.032"/>
      <path id="Pfad_6457" data-name="Pfad 6457" d="M64.459,6.746a1.221,1.221,0,0,0,.9.4,1.084,1.084,0,0,0,.9-.4l2-2a1.272,1.272,0,0,0-1.766-1.83c-.011.011-.022.021-.032.033l-2,2a1.266,1.266,0,0,0-.008,1.79l.008.008"/>
      <path id="Pfad_6458" data-name="Pfad 6458" d="M68.055,11.041a1.4,1.4,0,0,0,1.2.9.6.6,0,0,0,.4-.1l2.8-.9a1.328,1.328,0,1,0-.833-2.521l-.066.024-2.8.9a1.554,1.554,0,0,0-.7,1.7"/>
      <path id="Pfad_6459" data-name="Pfad 6459" d="M47.912,10.917c.022.009.044.016.066.024l2.6.9a.6.6,0,0,0,.4.1,1.256,1.256,0,0,0,1.2-.9,1.378,1.378,0,0,0-.8-1.7l-2.5-.9a1.327,1.327,0,0,0-.965,2.473"/>
      <path id="Pfad_6460" data-name="Pfad 6460" d="M48.711,16.558q.033-.01.066-.024a20.167,20.167,0,0,1,7.092-1.3,15.063,15.063,0,0,1,3.8.6c.9.2,1.9.4,3.3.6a35.782,35.782,0,0,0,4.695.3,33.776,33.776,0,0,0,4.494-.3,1.286,1.286,0,0,0,1.108-1.441l-.009-.057c.1-.6-.5-1.1-1.3-1.1a34.455,34.455,0,0,1-8.49,0c-1.2-.2-2.2-.4-3.1-.6a17.959,17.959,0,0,0-4.394-.6,20.633,20.633,0,0,0-8.091,1.4,1.328,1.328,0,0,0,.833,2.521"/>
      <path id="Pfad_6461" data-name="Pfad 6461" d="M9.583,24.132l.042-.007a2.347,2.347,0,0,1,1.3.2,1.851,1.851,0,0,1,.8,1.1l1.9-.3a3.154,3.154,0,0,1,.5-1.9,2.353,2.353,0,0,1,.7-.7,1,1,0,0,0-1.2-1.6,5.72,5.72,0,0,0-1.1,1.1,2.989,2.989,0,0,0-.4.8c-.1,0-.1-.1-.2-.1a4.94,4.94,0,0,0-2.6-.5.961.961,0,1,0,.258,1.9"/>
      <path id="Pfad_6462" data-name="Pfad 6462" d="M23.367,3.456l.042-.007a2.344,2.344,0,0,1,1.3.2,1.516,1.516,0,0,1,.8,1l1.9-.3a3.15,3.15,0,0,1,.5-1.9,2.327,2.327,0,0,1,.7-.7,1.056,1.056,0,0,0,.2-1.4A.965.965,0,0,0,27.444.218L27.4.253a5.715,5.715,0,0,0-1.1,1.1,1.994,1.994,0,0,0-.4.8c-.1,0-.1-.1-.2-.1a4.938,4.938,0,0,0-2.6-.5.961.961,0,1,0,.259,1.9"/>
      <path id="Pfad_6463" data-name="Pfad 6463" d="M55.869,7.845a8.246,8.246,0,0,0-2.8,4.5c1.1-.1,2.1-.2,3.2-.2a19.585,19.585,0,0,1,4.494.6c.9.2,1.8.4,3,.6a27.237,27.237,0,0,0,4.1.3,7.8,7.8,0,0,0-6.293-7.391,7.389,7.389,0,0,0-5.693,1.6"/>
      <path id="Pfad_6464" data-name="Pfad 6464" d="M76.581,60.2H65.458V51.093a.369.369,0,0,0-.1-.3A7.622,7.622,0,0,0,71.75,43.3a7.715,7.715,0,0,0-7.64-7.79h-.05a7.643,7.643,0,0,0-1.3,15.182c0,.1-.1.2-.1.3V60.2H46.58V25.923H21.211V60.2H18.074c0-1.558-.034-3.117-.034-4.677a.671.671,0,0,0-.157-.315c.228,0,.439,0,.667.018.631-.263-.022-1.211-.422-1.457h-.772c-.331-.929-.665-1.859-1-2.772a1.966,1.966,0,0,0-.9-.948,12.141,12.141,0,0,0-7.073,0,1.966,1.966,0,0,0-.9.948c-.332.912-.665,1.843-1,2.772H5.715c-.4.248-1.053,1.194-.421,1.459.228-.018.439-.018.667-.018a.673.673,0,0,0-.158.315c0,1.559-.016,3.117-.017,4.675H0v2.776H2.244V63l71.117-.02v0h3.22ZM29.4,32.914H38.29a1,1,0,1,1,0,2H29.4a1,1,0,0,1-1-1,1.074,1.074,0,0,1,1-1m0,7.791H38.29a1,1,0,0,1,1,1,.945.945,0,0,1-.885,1,1.082,1.082,0,0,1-.114,0H29.4a1,1,0,1,1,0-2m0,10.388H38.29V60.2H29.4ZM16.036,56.071h.02a1.1,1.1,0,1,1-.02,0m-8.251,0H7.8a.961.961,0,1,1-.02,0m.844,3.37h6.582V60.2H8.629Z"/>
    </g>
  </g>
</svg>
