<svg id="Icon_Set_Themen" data-name="Icon Set Themen" xmlns="http://www.w3.org/2000/svg" xmlns:xlink="http://www.w3.org/1999/xlink" width="100" height="100" viewBox="0 0 100 100">
  <defs>
    <clipPath id="clip-path">
      <rect id="Rechteck_4320" data-name="Rechteck 4320" width="76.581" height="64.591" transform="translate(0 0)" fill="none"/>
    </clipPath>
  </defs>
  <rect id="Rechteck_4092" data-name="Rechteck 4092" width="100" height="100" fill="none"/>
  <g id="Gruppe_15679" data-name="Gruppe 15679" transform="translate(12 18)">
    <g id="Gruppe_15679-2" data-name="Gruppe 15679" clip-path="url(#clip-path)">
      <path id="Pfad_6465" data-name="Pfad 6465" d="M40.72,8.281h4.455a1.4,1.4,0,0,0,1.051-.448,1.488,1.488,0,0,0,.428-1.063V3.454H43.171V4.837h2V6.77H40.719V1.512h5.935a1.8,1.8,0,0,0-.475-1.06,1.309,1.309,0,0,0-1-.452H40.72a1.455,1.455,0,0,0-1.063.449,1.45,1.45,0,0,0-.448,1.063V6.77A1.53,1.53,0,0,0,40.72,8.281"/>
      <path id="Pfad_6466" data-name="Pfad 6466" d="M37.037,7.831a1.45,1.45,0,0,0,.448-1.063V4.831A1.386,1.386,0,0,0,36.1,3.448H32.989V1.511h4.5V0h-6V4.832h4.483V6.769H31.489V8.281l4.485,0a1.45,1.45,0,0,0,1.063-.448"/>
      <path id="Pfad_6467" data-name="Pfad 6467" d="M52.563,61.816V59.5a.822.822,0,0,0-.823-.822H50.022L41.567,27.126a5.463,5.463,0,1,0-6.157,0L26.955,58.68H25.236a.824.824,0,0,0-.823.823v2.313H0v2.775H76.581V61.816ZM47.1,54.155l-7.179-4.882L44.891,45.9ZM41.811,34.4l1.919,7.16-4.162-4.653Zm-4.89-6.554a5.508,5.508,0,0,0,1.567.23,5.444,5.444,0,0,0,1.567-.23L41.3,32.5l-2.838,3.172-2.8-3.131Zm-1.768,6.6,2.206,2.465-4.091,4.571Zm3.31,3.7,5.635,6.3-5.637,3.833-5.638-3.832Zm-6.387,7.784L37,49.274l-7.113,4.837ZM29.231,56.545l9.23-6.276,9.3,6.321.56,2.09H28.659Z"/>
      <path id="Pfad_6468" data-name="Pfad 6468" d="M46,29.751l1.322,1.322a11.977,11.977,0,0,0,0-16.918L46,15.477a10.105,10.105,0,0,1,0,14.274"/>
      <path id="Pfad_6469" data-name="Pfad 6469" d="M49.778,33.528,51.1,34.85a17.326,17.326,0,0,0,0-24.472L49.778,11.7a15.454,15.454,0,0,1,0,21.828"/>
      <path id="Pfad_6470" data-name="Pfad 6470" d="M53.678,37.428,55,38.75A22.845,22.845,0,0,0,55,6.478L53.678,7.8a20.975,20.975,0,0,1,0,29.628"/>
      <path id="Pfad_6471" data-name="Pfad 6471" d="M29.269,31.073l1.322-1.322a10.094,10.094,0,0,1,0-14.274l-1.322-1.322a11.962,11.962,0,0,0,0,16.918"/>
      <path id="Pfad_6472" data-name="Pfad 6472" d="M25.492,34.85l1.322-1.322a15.454,15.454,0,0,1,0-21.828l-1.322-1.322a17.326,17.326,0,0,0,0,24.472"/>
      <path id="Pfad_6473" data-name="Pfad 6473" d="M22.913,37.428a20.951,20.951,0,0,1,0-29.628L21.591,6.478a22.819,22.819,0,0,0,0,32.272Z"/>
    </g>
  </g>
</svg>
