<svg id="Icon_Set_Themen" data-name="Icon Set Themen" xmlns="http://www.w3.org/2000/svg" xmlns:xlink="http://www.w3.org/1999/xlink" width="100" height="100" viewBox="0 0 100 100">
  <defs>
    <clipPath id="clip-path">
      <rect id="Rechteck_4318" data-name="Rechteck 4318" width="76.581" height="63.961" transform="translate(0 0)" fill="none"/>
    </clipPath>
  </defs>
  <rect id="Rechteck_4092" data-name="Rechteck 4092" width="100" height="100" fill="none"/>
  <g id="Gruppe_15677" data-name="Gruppe 15677" transform="translate(12 18)">
    <g id="Gruppe_15677-2" data-name="Gruppe 15677" clip-path="url(#clip-path)">
      <path id="Pfad_6447" data-name="Pfad 6447" d="M59.3,61.185a6.593,6.593,0,0,1,.28-6.459H18.973a3.485,3.485,0,0,0-1.824,6.459H0v2.776H76.58V61.185Z"/>
      <path id="Pfad_6448" data-name="Pfad 6448" d="M22.58,11.8l8.843,3.03c2.526.856,5.052,1.712,7.69,2.639L55.642,11.8v.014L64.608,8.74,39.109,0l-25.5,8.741,8.966,3.074Z"/>
      <path id="Pfad_6449" data-name="Pfad 6449" d="M55.02,46.331H20.265a3.494,3.494,0,0,0,0,6.987H60.871a6.663,6.663,0,0,1,0-6.987Z"/>
      <path id="Pfad_6450" data-name="Pfad 6450" d="M30.778,16.09c-2.245-.758-4.476-1.515-6.805-2.325v8.25a34.8,34.8,0,0,0,16.263,3.522A36.761,36.761,0,0,0,54.224,22V13.766L39.1,18.942Z"/>
      <path id="Pfad_6451" data-name="Pfad 6451" d="M39.8,44.928H53.925l3.69-14.774C52.3,29.9,44.469,31.136,39.8,33.619Zm3.259-3.913-.309-1.356a66.57,66.57,0,0,1,8.332-1.431l0-.006.7-.07.141,1.389a68.548,68.548,0,0,0-8.868,1.474m8.02-7.084.006,0,.7-.07.141,1.39a68.44,68.44,0,0,0-8.871,1.47l-.309-1.356a66.57,66.57,0,0,1,8.332-1.431"/>
      <path id="Pfad_6452" data-name="Pfad 6452" d="M20.573,30.153l3.691,14.774H38.393V33.618c-4.673-2.483-12.5-3.718-17.82-3.465m5.855,3.705a68.535,68.535,0,0,1,9.036,1.5l-.312,1.36a66.743,66.743,0,0,0-8.163-1.4l-.7-.07Zm0,4.308a68.538,68.538,0,0,1,9.036,1.5l-.309,1.356a62.035,62.035,0,0,0-8.166-1.4l-.7-.07Z"/>
      <path id="Pfad_6453" data-name="Pfad 6453" d="M19.306,25.9l-2.974-7.8V10.607h-1.4V18.1l-2.961,7.8h7.334Z"/>
    </g>
  </g>
</svg>
