<svg id="Icon_Set_Quick_Links" data-name="Icon Set Quick Links" xmlns="http://www.w3.org/2000/svg" xmlns:xlink="http://www.w3.org/1999/xlink" width="24" height="24" viewBox="0 0 24 24">
  <defs>
    <clipPath id="clip-path">
      <rect id="Rechteck_4340" data-name="Rechteck 4340" width="16.447" height="16.462" fill="none"/>
    </clipPath>
  </defs>
  <path id="Pfad_6585" data-name="Pfad 6585" d="M0,0H24V24H0Z" fill="none"/>
  <g id="Gruppe_15765" data-name="Gruppe 15765" transform="translate(4 4)">
    <g id="Gruppe_15765-2" data-name="Gruppe 15765" transform="translate(0 0)" clip-path="url(#clip-path)">
      <path id="Pfad_6587" data-name="Pfad 6587" d="M4.938,16.462A1.646,1.646,0,1,1,6.1,13.653a1.646,1.646,0,0,1-1.163,2.808m8.231,0a1.651,1.651,0,1,1,1.163-.484,1.585,1.585,0,0,1-1.163.484M3.457,1.646H15.6a.788.788,0,0,1,.72.422.83.83,0,0,1,.02.854L13.416,8.19a1.652,1.652,0,0,1-.607.638,1.606,1.606,0,0,1-.834.226H5.844L4.938,10.7h9.877v1.646H4.938a1.523,1.523,0,0,1-1.4-.813A1.556,1.556,0,0,1,3.5,9.919L4.609,7.9,1.646,1.646H0V0H2.675Z" transform="translate(0 0)"/>
    </g>
  </g>
</svg>
