<svg id="Icons_Set_Sticky" data-name="Icons Set Sticky" xmlns="http://www.w3.org/2000/svg" width="48" height="48" viewBox="0 0 48 48">
  <rect id="Rechteck_4326" data-name="Rechteck 4326" width="48" height="48" fill="none"/>
  <path id="Pfad_6498" data-name="Pfad 6498" d="M19.577,25.434l-5.065-5.065,1.509-1.509,3.556,3.556,7.651-7.651,1.509,1.509ZM11.495,13.292A5.168,5.168,0,0,1,6.107,7.9a5.168,5.168,0,0,1,5.388-5.388A5.168,5.168,0,0,1,16.883,7.9a5.168,5.168,0,0,1-5.388,5.388m4.6,2.8-4.454,4.634,4.131,4.131H0V21.482a4.3,4.3,0,0,1,.611-2.245,3.883,3.883,0,0,1,1.832-1.563,26.852,26.852,0,0,1,4.742-1.652,18.9,18.9,0,0,1,4.311-.5,20.607,20.607,0,0,1,2.209.126,16.084,16.084,0,0,1,2.389.449" transform="translate(10 10.484)"/>
</svg>
