<svg id="Icon_Set_Quick_Links" data-name="Icon Set Quick Links" xmlns="http://www.w3.org/2000/svg" width="24" height="24" viewBox="0 0 24 24">
  <path id="Pfad_6585" data-name="Pfad 6585" d="M0,0H24V24H0Z" fill="none"/>
  <g id="Gruppe_15682" data-name="Gruppe 15682" transform="translate(-315.921 -1454.589)">
    <path id="Pfad_6509" data-name="Pfad 6509" d="M63.174,9.758l7.72,7.72a.86.86,0,0,0,1.216,0L75.8,13.784,71.155,9.136,75.77,4.521,72.09.842a.859.859,0,0,0-1.215,0l-7.7,7.7a.86.86,0,0,0,0,1.216" transform="translate(256 1457)"/>
    <path id="Pfad_6510" data-name="Pfad 6510" d="M87.884,12.2a.86.86,0,0,0,0-1.216l-3.86-3.86-4.458,4.458,4.468,4.469Z" transform="translate(249.773 1454.554)"/>
  </g>
</svg>
