<svg id="Icon_Set_Event" data-name="Icon Set Event" xmlns="http://www.w3.org/2000/svg" width="24" height="24" viewBox="0 0 24 24">
  <rect id="Rechteck_4324" data-name="Rechteck 4324" width="24" height="24" fill="none"/>
  <path id="Pfad_6487" data-name="Pfad 6487" d="M55.579,14.7l1.4-1.4-3.7-3.7V5h-2v5.4Zm-3.3,5.3a9.723,9.723,0,0,1-3.9-.788A9.978,9.978,0,0,1,43.067,13.9a9.723,9.723,0,0,1-.788-3.9,9.723,9.723,0,0,1,.788-3.9A9.978,9.978,0,0,1,48.379.788a10.045,10.045,0,0,1,7.8,0A9.984,9.984,0,0,1,61.492,6.1a9.74,9.74,0,0,1,.787,3.9,9.74,9.74,0,0,1-.787,3.9,9.984,9.984,0,0,1-5.313,5.312,9.723,9.723,0,0,1-3.9.788" transform="translate(-40.279 2)"/>
</svg>
