<svg id="Icon_Set_Event" data-name="Icon Set Event" xmlns="http://www.w3.org/2000/svg" width="24" height="24" viewBox="0 0 24 24">
  <rect id="Rechteck_4324" data-name="Rechteck 4324" width="24" height="24" fill="none"/>
  <path id="Pfad_6496" data-name="Pfad 6496" d="M447.794,20a2.988,2.988,0,0,1-3-3,2.692,2.692,0,0,1,.025-.363,1.886,1.886,0,0,1,.075-.337l-7.05-4.1a3.3,3.3,0,0,1-.95.588,2.99,2.99,0,0,1-4.1-2.788,2.994,2.994,0,0,1,4.1-2.788,3.3,3.3,0,0,1,.95.588l7.05-4.1a1.886,1.886,0,0,1-.075-.337A2.692,2.692,0,0,1,444.794,3a2.894,2.894,0,0,1,.875-2.125,3.018,3.018,0,0,1,4.25,0A2.894,2.894,0,0,1,450.794,3a2.894,2.894,0,0,1-.875,2.125,3,3,0,0,1-3.225.663,3.3,3.3,0,0,1-.95-.588l-7.05,4.1a1.888,1.888,0,0,1,.075.337,2.649,2.649,0,0,1,0,.726,1.888,1.888,0,0,1-.075.337l7.05,4.1a3.3,3.3,0,0,1,.95-.588,3,3,0,0,1,3.225,4.913,2.894,2.894,0,0,1-2.125.875" transform="translate(-429.794 2)"/>
</svg>
