<svg id="Icons_Set_Sticky" data-name="Icons Set Sticky" xmlns="http://www.w3.org/2000/svg" width="48" height="48" viewBox="0 0 48 48">
  <rect id="Rechteck_4326" data-name="Rechteck 4326" width="48" height="48" fill="none"/>
  <path id="Pfad_6502" data-name="Pfad 6502" d="M165.956,25.408a3.462,3.462,0,0,1-3.47-4.029,2.562,2.562,0,0,1,.139-.536l-9.345-5.428a3.529,3.529,0,0,1-1.142.848,3.188,3.188,0,0,1-1.388.324,3.5,3.5,0,0,1-3.516-3.516,3.506,3.506,0,0,1,4.873-3.239,3.736,3.736,0,0,1,1.173.8l9.345-5.367a2.194,2.194,0,0,1-.139-.491,3.151,3.151,0,0,1-.046-.527,3.392,3.392,0,0,1,1.026-2.491,3.537,3.537,0,0,1,4.981,0,3.392,3.392,0,0,1,1.026,2.491,3.391,3.391,0,0,1-1.026,2.491,3.389,3.389,0,0,1-2.491,1.026,4.125,4.125,0,0,1-1.378-.231,2.638,2.638,0,0,1-1.12-.756l-9.345,5.182c.041.165.077.355.108.571a3.974,3.974,0,0,1,.046.547,2.43,2.43,0,0,1-.046.463c-.031.16-.067.322-.108.486l9.345,5.3a3.657,3.657,0,0,1,1.079-.694,3.592,3.592,0,0,1,1.419-.262,3.522,3.522,0,0,1,2.491,6.007,3.392,3.392,0,0,1-2.491,1.026" transform="translate(-134.234 11.267)"/>
</svg>
