<svg id="Icon_Set_Event" data-name="Icon Set Event" xmlns="http://www.w3.org/2000/svg" width="24" height="24" viewBox="0 0 24 24">
  <rect id="Rechteck_4324" data-name="Rechteck 4324" width="24" height="24" fill="none"/>
  <path id="Pfad_6497" data-name="Pfad 6497" d="M482.324,20l-.4-3.2a3.745,3.745,0,0,1-.613-.3c-.191-.117-.379-.242-.562-.375l-2.975,1.25-2.75-4.75,2.575-1.95a2.342,2.342,0,0,1-.025-.338V9.663a2.342,2.342,0,0,1,.025-.338l-2.575-1.95,2.75-4.75,2.975,1.25q.275-.2.575-.375a4.935,4.935,0,0,1,.6-.3l.4-3.2h5.5l.4,3.2a3.7,3.7,0,0,1,.612.3q.288.176.563.375l2.975-1.25,2.75,4.75-2.575,1.95a2.342,2.342,0,0,1,.025.338v.674a1.241,1.241,0,0,1-.05.338l2.575,1.95-2.75,4.75-2.95-1.25q-.274.2-.575.375a4.937,4.937,0,0,1-.6.3l-.4,3.2Zm2.8-6.5a3.5,3.5,0,0,0,3.5-3.5,3.5,3.5,0,1,0-7,0,3.478,3.478,0,0,0,3.5,3.5" transform="translate(-473.024 2)"/>
</svg>
