<svg id="Icon_Set_Event" data-name="Icon Set Event" xmlns="http://www.w3.org/2000/svg" xmlns:xlink="http://www.w3.org/1999/xlink" width="24" height="24" viewBox="0 0 24 24">
  <defs>
    <clipPath id="clip-path">
      <rect id="Rechteck_4365" data-name="Rechteck 4365" width="24" height="19.14" fill="none"/>
    </clipPath>
  </defs>
  <rect id="Rechteck_4324" data-name="Rechteck 4324" width="24" height="24" fill="none"/>
  <g id="Gruppe_15926" data-name="Gruppe 15926" transform="translate(0 2.405)">
    <g id="Gruppe_15926-2" data-name="Gruppe 15926" transform="translate(0 0)" clip-path="url(#clip-path)">
      <path id="Pfad_6616" data-name="Pfad 6616" d="M16.35,19.14l-4.23-4.23,1.26-1.26,2.97,2.97,6.39-6.389L24,11.489ZM9.6,9A4.391,4.391,0,0,1,6.36,7.74,4.388,4.388,0,0,1,5.1,4.5,4.39,4.39,0,0,1,6.36,1.259,4.39,4.39,0,0,1,9.6,0a4.315,4.315,0,0,1,4.5,4.5A4.317,4.317,0,0,1,9.6,9m3.839,2.339-3.72,3.87,3.45,3.45H0v-2.82a3.593,3.593,0,0,1,.511-1.875A3.24,3.24,0,0,1,2.04,12.659,22.436,22.436,0,0,1,6,11.28a15.794,15.794,0,0,1,3.6-.421,17.323,17.323,0,0,1,1.844.106,13.353,13.353,0,0,1,2,.375" transform="translate(0 0)"/>
    </g>
  </g>
</svg>
