<svg id="Icon_Set_Event" data-name="Icon Set Event" xmlns="http://www.w3.org/2000/svg" width="24" height="24" viewBox="0 0 24 24">
  <rect id="Rechteck_4324" data-name="Rechteck 4324" width="24" height="24" fill="none"/>
  <path id="Pfad_6489" data-name="Pfad 6489" d="M138.838,10a3.853,3.853,0,0,1-2.825-1.175A3.852,3.852,0,0,1,134.838,6a3.852,3.852,0,0,1,1.175-2.825,3.984,3.984,0,0,1,5.65,0A3.852,3.852,0,0,1,142.838,6a3.852,3.852,0,0,1-1.175,2.825A3.852,3.852,0,0,1,138.838,10m-8,8V15.2a2.978,2.978,0,0,1,1.6-2.65,14.853,14.853,0,0,1,3.15-1.163,13.84,13.84,0,0,1,6.5,0,14.853,14.853,0,0,1,3.15,1.163,2.978,2.978,0,0,1,1.6,2.65V18Z" transform="translate(-126.838 2)"/>
</svg>
