<svg id="Icon_Set_Event" data-name="Icon Set Event" xmlns="http://www.w3.org/2000/svg" width="24" height="24" viewBox="0 0 24 24">
  <rect id="Rechteck_4324" data-name="Rechteck 4324" width="24" height="24" fill="none"/>
  <path id="Pfad_6493" data-name="Pfad 6493" d="M308.356,15l3.6-3.6,3.6,3.6,1.4-1.4-3.6-3.6,3.6-3.6-1.4-1.4-3.6,3.6-3.6-3.6-1.4,1.4,3.6,3.6-3.6,3.6Zm3.6,5a9.723,9.723,0,0,1-3.9-.788,9.978,9.978,0,0,1-5.312-5.312,9.723,9.723,0,0,1-.788-3.9,9.723,9.723,0,0,1,.788-3.9A9.978,9.978,0,0,1,308.056.788a10.045,10.045,0,0,1,7.8,0A9.978,9.978,0,0,1,321.168,6.1a9.74,9.74,0,0,1,.788,3.9,9.74,9.74,0,0,1-.788,3.9,9.978,9.978,0,0,1-5.312,5.312,9.723,9.723,0,0,1-3.9.788" transform="translate(-299.956 2)" fill="red"/>
</svg>
