<svg id="Icon_Set_Event" data-name="Icon Set Event" xmlns="http://www.w3.org/2000/svg" width="24" height="24" viewBox="0 0 24 24">
  <rect id="Rechteck_4324" data-name="Rechteck 4324" width="24" height="24" fill="none"/>
  <path id="Pfad_6488" data-name="Pfad 6488" d="M95.559,17A23.5,23.5,0,0,1,90.3,11.95a8.31,8.31,0,0,1-1.737-4.8A7.156,7.156,0,0,1,89.2,4.038,7.037,7.037,0,0,1,90.834,1.8,6.762,6.762,0,0,1,93.084.45a7.031,7.031,0,0,1,4.95,0,6.762,6.762,0,0,1,2.25,1.35,7.034,7.034,0,0,1,1.637,2.238,7.156,7.156,0,0,1,.638,3.112,8.3,8.3,0,0,1-1.738,4.8A23.468,23.468,0,0,1,95.559,17m0-8a2.006,2.006,0,0,0,2-2,2,2,0,1,0-3.413,1.413A1.93,1.93,0,0,0,95.559,9m-7,9h14v2h-14Z" transform="translate(-83.559 2)"/>
</svg>
