<svg id="Icon_Set_Event" data-name="Icon Set Event" xmlns="http://www.w3.org/2000/svg" width="24" height="24" viewBox="0 0 24 24">
  <rect id="Rechteck_4324" data-name="Rechteck 4324" width="24" height="24" fill="none"/>
  <path id="Pfad_6491" data-name="Pfad 6491" d="M181.118,15h2V9h-2Zm1-8a1.008,1.008,0,0,0,.713-1.712,1.007,1.007,0,0,0-1.425,1.424.965.965,0,0,0,.712.288m0,13a9.723,9.723,0,0,1-3.9-.788,9.978,9.978,0,0,1-5.312-5.312,9.74,9.74,0,0,1-.788-3.9,9.74,9.74,0,0,1,.788-3.9A9.978,9.978,0,0,1,178.218.788a10.045,10.045,0,0,1,7.8,0A9.984,9.984,0,0,1,191.331,6.1a9.739,9.739,0,0,1,.787,3.9,9.739,9.739,0,0,1-.787,3.9,9.984,9.984,0,0,1-5.313,5.312,9.723,9.723,0,0,1-3.9.788" transform="translate(-170.118 2)"/>
</svg>
