<?xml version="1.0" encoding="UTF-8"?>
<svg id="Ebene_2" xmlns="http://www.w3.org/2000/svg" viewBox="0 0 17.38 14.06"><defs><style>.cls-1{stroke-width:0px;}</style></defs><g id="Ebene_5">
<path id="mail_FILL0_wght600_GRAD0_opsz24" class="cls-1" d="m2.2,14.06c-.59.01-1.15-.22-1.56-.64C.22,13.01-.01,12.45,0,11.86V2.2c-.01-.59.22-1.15.64-1.56C1.05.22,1.61-.01,2.2,0h12.98c.59-.01,1.15.22,1.56.64.42.41.65.97.64,1.56v9.67c.01.59-.22,1.15-.64,1.56-.41.42-.97.65-1.56.64H2.2Zm6.49-5.7L2.2,4.22v7.65h12.98v-7.65l-6.49,4.15Zm0-2.02l6.49-4.14H2.2l6.49,4.14Z"/></g>
</svg>