<?xml version="1.0" encoding="UTF-8"?><svg id="Ebene_2" xmlns="http://www.w3.org/2000/svg" xmlns:xlink="http://www.w3.org/1999/xlink" viewBox="0 0 18.74 18.83"><defs><style>.cls-1{fill:url(#Unbenannter_Verlauf_3);fill-rule:evenodd;stroke-width:0px;}</style><linearGradient id="Unbenannter_Verlauf_3" x1="-927.79" y1="695.26" x2="-927.79" y2="694.65" gradientTransform="translate(28489.25 21443.42) scale(30.7 -30.84)" gradientUnits="userSpaceOnUse"><stop offset="0" stop-color="#20b038"/><stop offset="1" stop-color="#60d66a"/></linearGradient></defs><g id="Ebene_5"><path id="WhatsApp-White-Logo.wine" class="cls-1" d="m13.66,11.28c-.23-.12-1.38-.68-1.59-.76s-.37-.12-.52.12-.6.76-.74.92-.27.18-.51.06c-.69-.27-1.32-.67-1.88-1.16-.51-.47-.95-1.02-1.3-1.62-.14-.23-.01-.36.1-.48.1-.1.23-.27.35-.41.1-.12.17-.25.23-.39.06-.13.06-.28-.02-.41-.06-.12-.52-1.26-.72-1.73-.19-.45-.38-.39-.52-.4s-.29,0-.45,0c-.24,0-.46.11-.62.29-.53.5-.83,1.21-.82,1.94.08.88.41,1.72.95,2.41.12.16,1.64,2.51,3.98,3.52.43.19.88.35,1.33.49.48.14.98.18,1.47.09.66-.13,1.23-.54,1.57-1.11.15-.35.2-.73.14-1.11-.06-.1-.21-.16-.45-.27m-4.25,5.81h0c-1.39,0-2.75-.37-3.95-1.08l-.28-.17-2.94.77.78-2.86-.18-.29C.56,9.83,1.66,5.04,5.29,2.76c3.63-2.28,8.42-1.18,10.69,2.45,2.28,3.63,1.18,8.42-2.45,10.69-1.24.78-2.66,1.19-4.12,1.19m6.6-14.36c-3.65-3.64-9.56-3.64-13.2,0C-.17,5.72-.78,10.34,1.32,13.99l-1.32,4.84,4.94-1.3c1.37.75,2.9,1.14,4.46,1.14h0c5.16,0,9.33-4.18,9.33-9.34,0-2.47-.98-4.84-2.73-6.59"/></g></svg>